<svg xmlns="http://www.w3.org/2000/svg" xmlns:xlink="http://www.w3.org/1999/xlink"><symbol id="icon-fb" viewBox="0 0 8 16"><g fill="none">
<path d="M7.69874 0.00332907L5.77991 0C3.62416 0 2.23102 1.54552 2.23102 3.93762V5.75313H0.301719C0.135004 5.75313 0 5.89927 0 6.07954V8.71001C0 8.89028 0.135158 9.03625 0.301719 9.03625H2.23102V15.6738C2.23102 15.854 2.36603 16 2.53274 16H5.04993C5.21665 16 5.35165 15.8539 5.35165 15.6738V9.03625H7.60746C7.77417 9.03625 7.90918 8.89028 7.90918 8.71001L7.9101 6.07954C7.9101 5.99299 7.87824 5.91009 7.82174 5.84884C7.76525 5.78758 7.68828 5.75313 7.60823 5.75313H5.35165V4.2141C5.35165 3.47438 5.51467 3.09886 6.40582 3.09886L7.69844 3.09836C7.865 3.09836 8 2.95222 8 2.77211V0.329578C8 0.149642 7.86515 0.00366197 7.69874 0.00332907Z" fill="white"/>
</g></symbol><symbol id="icon-vk" viewBox="0 0 16 10"><g fill="none">
<path d="M15.9151 9.0311C15.8958 8.98536 15.8777 8.94742 15.8609 8.91702C15.5833 8.36934 15.0528 7.6971 14.2698 6.9001L14.2533 6.88185L14.245 6.8729L14.2366 6.86373H14.2282C13.8728 6.49261 13.6478 6.24307 13.5535 6.11532C13.3811 5.87195 13.3424 5.62561 13.4367 5.37602C13.5033 5.18743 13.7534 4.78918 14.1864 4.1807C14.4142 3.85823 14.5946 3.59977 14.7279 3.40506C15.6887 2.00572 16.1053 1.11153 15.9775 0.722125L15.9279 0.631127C15.8945 0.576343 15.8084 0.526225 15.6698 0.480518C15.5308 0.434907 15.3531 0.427364 15.1364 0.45776L12.7373 0.475915C12.6985 0.460829 12.643 0.462235 12.5707 0.480518C12.4984 0.4988 12.4623 0.507974 12.4623 0.507974L12.4206 0.530827L12.3874 0.558283C12.3596 0.576438 12.3291 0.60837 12.2957 0.654013C12.2626 0.699496 12.2348 0.752873 12.2126 0.813699C11.9514 1.54984 11.6545 2.23426 11.3212 2.86693C11.1157 3.24419 10.9269 3.57114 10.7546 3.84797C10.5825 4.1247 10.4381 4.32859 10.3215 4.45929C10.2048 4.59011 10.0995 4.69492 10.0049 4.77409C9.91044 4.85329 9.83834 4.88676 9.78842 4.87452C9.73838 4.86228 9.69125 4.85013 9.64664 4.83798C9.56894 4.7832 9.50644 4.70869 9.45932 4.6144C9.41199 4.52011 9.38013 4.40144 9.36347 4.25847C9.3469 4.1154 9.33709 3.99234 9.33429 3.88888C9.33169 3.78554 9.33289 3.63938 9.33852 3.4508C9.3443 3.26212 9.3469 3.13446 9.3469 3.06753C9.3469 2.83631 9.35101 2.58537 9.35927 2.31464C9.36767 2.04392 9.37447 1.82941 9.38016 1.67139C9.38582 1.51321 9.38844 1.34585 9.38844 1.16941C9.38844 0.992979 9.37864 0.854611 9.35927 0.754184C9.34013 0.653884 9.31074 0.556526 9.27202 0.462139C9.23307 0.367849 9.17606 0.294909 9.10125 0.24313C9.02629 0.191414 8.93309 0.150373 8.82219 0.119881C8.52781 0.0469095 8.15296 0.00743533 7.69747 0.00129845C6.66454 -0.0108474 6.00083 0.0622196 5.70648 0.220404C5.58985 0.287238 5.48432 0.378556 5.38996 0.49407C5.28996 0.627962 5.27602 0.70103 5.3482 0.713048C5.68147 0.767736 5.91741 0.89856 6.05626 1.10539L6.1063 1.21499C6.14523 1.29407 6.18409 1.43407 6.22299 1.63479C6.26182 1.83552 6.28689 2.05757 6.29792 2.3008C6.32563 2.74499 6.32563 3.12522 6.29792 3.44153C6.27011 3.75796 6.24385 4.0043 6.21878 4.18073C6.19372 4.35717 6.15626 4.50014 6.1063 4.60961C6.05626 4.71911 6.02297 4.78605 6.00628 4.81034C5.98962 4.83463 5.97573 4.84994 5.9647 4.85595C5.89252 4.88625 5.81744 4.90169 5.73974 4.90169C5.66192 4.90169 5.56756 4.85905 5.45651 4.77384C5.34549 4.68862 5.23027 4.57157 5.11084 4.4225C4.99141 4.27339 4.85673 4.06503 4.70673 3.79737C4.55684 3.52971 4.40132 3.21338 4.24026 2.84836L4.107 2.58364C4.0237 2.41334 3.9099 2.16538 3.7655 1.83996C3.62101 1.51442 3.4933 1.19952 3.38228 0.895332C3.3379 0.767576 3.27123 0.670314 3.18238 0.603383L3.14069 0.575927C3.11297 0.551635 3.06847 0.525841 3.00743 0.498353C2.9463 0.470897 2.88252 0.451208 2.81582 0.439094L0.533256 0.457249C0.300008 0.457249 0.141747 0.515133 0.0584143 0.630743L0.0250639 0.685432C0.00840325 0.715892 0 0.76454 0 0.831502C0 0.898432 0.0166606 0.980577 0.050011 1.07784C0.383223 1.93572 0.745584 2.76308 1.13709 3.56005C1.5286 4.35701 1.86882 4.99898 2.15753 5.48539C2.44631 5.97216 2.74066 6.43156 3.04058 6.86338C3.3405 7.29535 3.53902 7.57219 3.63616 7.6938C3.73341 7.81565 3.80979 7.90674 3.86532 7.96757L4.07362 8.18654C4.20691 8.33258 4.40263 8.50748 4.66089 8.71125C4.9192 8.91514 5.20517 9.11586 5.51895 9.31375C5.83279 9.51131 6.19789 9.67253 6.61447 9.79722C7.03098 9.92203 7.43638 9.97212 7.83072 9.94795H8.78875C8.98305 9.92957 9.13025 9.86265 9.2303 9.74713L9.26345 9.70139C9.28574 9.66508 9.3066 9.60867 9.32586 9.53276C9.34535 9.45672 9.35504 9.37294 9.35504 9.28181C9.34935 9.02026 9.36752 8.78454 9.40907 8.57467C9.45059 8.36486 9.49792 8.20668 9.55085 8.10015C9.60375 7.99371 9.66345 7.9039 9.72989 7.83108C9.79647 7.75811 9.84391 7.71391 9.87175 7.69869C9.89941 7.68338 9.9215 7.673 9.93816 7.66676C10.0714 7.61812 10.2283 7.66523 10.409 7.80833C10.5895 7.9513 10.7588 8.12783 10.9172 8.33763C11.0755 8.54763 11.2657 8.78323 11.4878 9.04478C11.71 9.30643 11.9043 9.50092 12.0709 9.62887L12.2374 9.73837C12.3487 9.81144 12.4931 9.87837 12.6708 9.9392C12.8482 9.99999 13.0037 10.0152 13.1372 9.98481L15.2697 9.94837C15.4807 9.94837 15.6448 9.91011 15.7612 9.8342C15.8779 9.75816 15.9472 9.67438 15.9695 9.58326C15.9918 9.49203 15.993 9.38854 15.9737 9.27283C15.954 9.15742 15.9345 9.07671 15.9151 9.0311Z" fill="white"/>
</g></symbol></svg>